# xmcd
#
# Track frame offsets:
#	150
#	19494
#	35778
#	54004
#	75511
#	99608
#	115736
#	130358
#	150368
#	162144
#	174203
#	197281
#	216261
#
# Disc length: 3148 seconds
#
# Revision: 1
# Processed by: cddbd v1.5.1PL0 Copyright (c) Steve Scherf et al.
# Submitted via: EasyCDDAExtractor 5.0.7
#
DISCID=9b0c4a0d
DTITLE=J.J. Jackson - Blues Man
DYEAR=1900
DGENRE=Blues
TTITLE0=Stand By Me
TTITLE1=Lucille
TTITLE2=Hey, Blues!
TTITLE3=Mustang Sally
TTITLE4=You Don't Give A Damn About Me
TTITLE5=Lord Byron's Blues
TTITLE6=Fanny Mae
TTITLE7=London, London
TTITLE8=Try Me
TTITLE9=Finger Poppin' Time
TTITLE10=Blue Rose
TTITLE11=Further On Up The Road
TTITLE12=Oh, Baby
EXTD=
EXTT0=
EXTT1=
EXTT2=
EXTT3=
EXTT4=
EXTT5=
EXTT6=
EXTT7=
EXTT8=
EXTT9=
EXTT10=
EXTT11=
EXTT12=
PLAYORDER=
